<svg xmlns="http://www.w3.org/2000/svg" id="alpaca-icon" width="16" height="16" version="1.1">
  <path id="path2" d="M6.858 11.222C6.834 10.943 5.75 9.05 5.75 9.05c-.011-.03-.058-.05.034-.054l1.368.116c.29.016.523-.015.776-.038.148-.014.185-.043.322-.085.119-.036.214-.077.308-.1-.152.656-.76 1.846-.814 2.076.093-.069.591-1.034.678-1.21.077-.151.136-.282.213-.419.895-1.605.926-2.425.997-4.076 0-.403.021-.863 0-1.26-.02-.363-.086-.853 0-1.221.556-.13 1.759.575 1.666-.144-.028-.217-.376-.375-.6-.554l-.3-.256c-.107-.102-.206-.188-.285-.306.03-.372.132-.719.295-.963-.123.035-.157.106-.256.186-.084.069-.145.128-.256.09-.044-.014-.049-.03-.029-.071.098-.207.493-.25.41-.41-.046-.096-.066-.053-.13-.03a1.798 1.798 0 0 0-.157.112 2.783 2.783 0 0 0-.059.05l-.187.183C9.69.587 9.672.585 9.673.58c.051-.19.365-.293.401-.554.004-.032-.016-.026-.05-.025-.174.005-.22.054-.338.206a.892.892 0 0 0-.168.304l-.183.488C9.155.985 9.01.925 8.856.888c.047.074.536.56.55.783.006.103-.065.116-.123.535-.07.494-.06.799-.058 1.276.003.633-.074 1.317-.074 1.962 0 1.703-.574.823-1.253.625a3.564 3.564 0 0 0-2.049.07c-.14.049-.137.06-.25.12-.221-.33-.344-.482-.665-.482-.187.352-.317.728-.18 1.217.04.142.126.261.154.362.056.214-.128.563-.078.857.05.302.614.89.822 1.18.074.1.14.18.206.274l.793 1.244c.072.12.115.205.206.313M9.954 1.75c.085 0 .148.062.148.145a.151.151 0 0 1-.153.151c-.084 0-.152-.054-.152-.137 0-.083.075-.16.157-.16M7.671 13.78l.407 1.851h-.369c0-.642-.038-1.188-.038-1.852M4.786 16h3.7l-1.148-4.85c-.723 1.129-1.812 3.5-2.552 4.85" style="fill:#fad64e;stroke-width:1.1633"/>
</svg>
